{
	"asset":{
		"version":"2.0",
		"generator":"Maxon Cinema 4D 2026.0.0 (#200000219)",
		"copyright":""
	},
	"scenes":[{
		"nodes":[0]
	}],
	"nodes":[{
		"name":"Scene 0",
		"children":[1]
	},
	{
		"name":"Scene 0",
		"children":[2]
	},
	{
		"name":"Texto",
		"children":[3]
	},
	{
		"name":"1",
		"children":[4]
	},
	{
		"name":"404",
		"children":[5]
	},
	{
		"rotation":[0.0,
		0.0,
		0.0,
		-1.0],
		"name":"0",
		"mesh":0,
		"translation":[-0.0034055737778544428,
		0.0,
		0.0],
		"scale":[1.0,
		1.0,
		1.0]
	}],
	"meshes":[{
		"name":"0",
		"primitives":[{
			"attributes":{
				"POSITION":1,
				"NORMAL":2,
				"TEXCOORD_0":3
			},
			"indices":0,
			"material":0
		}]
	}],
	"accessors":[{
		"min":[0],
		"bufferView":0,
		"type":"SCALAR",
		"componentType":5123,
		"count":3360,
		"byteOffset":0,
		"max":[3359]
	},
	{
		"min":[0.041999999433755878,
		-0.023874999955296518,
		-0.4300000071525574],
		"bufferView":1,
		"type":"VEC3",
		"componentType":5126,
		"count":3360,
		"byteOffset":0,
		"max":[1.3978749513626099,
		1.4638750553131104,
		0.0]
	},
	{
		"min":[-0.9999983310699463,
		-0.9999947547912598,
		-1.0],
		"bufferView":1,
		"type":"VEC3",
		"componentType":5126,
		"count":3360,
		"byteOffset":12,
		"max":[0.9999985694885254,
		0.9999926090240479,
		1.0]
	},
	{
		"min":[0.000030517578125,
		0.000030517578125],
		"bufferView":1,
		"type":"VEC2",
		"componentType":5126,
		"count":3360,
		"byteOffset":24,
		"max":[1.0,
		1.0]
	}],
	"bufferViews":[{
		"buffer":0,
		"byteOffset":0,
		"byteLength":6720,
		"target":34963
	},
	{
		"buffer":0,
		"byteOffset":6720,
		"byteLength":107520,
		"target":34962,
		"byteStride":32
	}],
	"buffers":[{
		"uri":"data:application/octet-stream;base64,",
		"byteLength":114240
	}],
	"materials":[{
		"pbrMetallicRoughness":{
			"baseColorFactor":[0.0,
			1.0,
			0.0002812892198562622,
			1.0],
			"metallicFactor":1.0,
			"roughnessFactor":0.20000000298023225
		},
		"emissiveFactor":[0.0,
		0.0,
		0.0],
		"alphaMode":"OPAQUE",
		"doubleSided":false,
		"name":"Mat"
	}]
}