{
	"asset":{
		"version":"2.0",
		"generator":"Maxon Cinema 4D 2026.0.0 (#200000219)",
		"copyright":""
	},
	"scenes":[{
		"nodes":[0]
	}],
	"nodes":[{
		"name":"Scene 0",
		"children":[1]
	},
	{
		"name":"Scene 0",
		"children":[2]
	},
	{
		"name":"Texto",
		"children":[3]
	},
	{
		"name":"1",
		"children":[4]
	},
	{
		"name":"404",
		"children":[5]
	},
	{
		"name":"4",
		"mesh":0
	}],
	"meshes":[{
		"name":"4",
		"primitives":[{
			"attributes":{
				"POSITION":1,
				"NORMAL":2,
				"TEXCOORD_0":3
			},
			"indices":0,
			"material":0
		}]
	}],
	"accessors":[{
		"bufferView":0,
		"type":"SCALAR",
		"componentType":5123,
		"count":372,
		"byteOffset":0,
		"min":[0],
		"max":[371]
	},
	{
		"bufferView":1,
		"type":"VEC3",
		"componentType":5126,
		"count":372,
		"byteOffset":0,
		"min":[0.024125000461935998,
		0.0001249694760190323,
		-0.4300000071525574],
		"max":[1.3298749923706055,
		1.4398750066757203,
		0.0]
	},
	{
		"bufferView":1,
		"type":"VEC3",
		"componentType":5126,
		"count":372,
		"byteOffset":12,
		"min":[-1.0,
		-1.0,
		-1.0],
		"max":[1.0,
		1.0,
		1.0]
	},
	{
		"bufferView":1,
		"type":"VEC2",
		"componentType":5126,
		"count":372,
		"byteOffset":24,
		"min":[0.000030517578125,
		0.000030517578125],
		"max":[1.0,
		1.0]
	}],
	"bufferViews":[{
		"buffer":0,
		"byteOffset":0,
		"byteLength":744,
		"target":34963
	},
	{
		"buffer":0,
		"byteOffset":744,
		"byteLength":11904,
		"target":34962,
		"byteStride":32
	}],
	"buffers":[{
		"uri":"data:application/octet-stream;base64,",
		"byteLength":12648
	}],
	"materials":[{
		"pbrMetallicRoughness":{
			"baseColorFactor":[0.0,
			0.7529422044754028,
			0.0002812892198562622,
			1.0],
			"metallicFactor":1.0,
			"roughnessFactor":0.20000000298023225
		},
		"emissiveFactor":[0.0,
		0.0,
		0.0],
		"doubleSided":false,
		"alphaMode":"OPAQUE",
		"name":"Mat"
	}]
}