{
	"asset":{
		"version":"2.0",
		"generator":"Maxon Cinema 4D 2026.0.0 (#200000219)"
	},
	"scenes":[{
		"nodes":[0,
		1,
		2,
		3,
		4,
		5,
		6,
		7,
		8,
		9,
		10]
	}],
	"accessors":[{
		"bufferView":0,
		"type":"SCALAR",
		"componentType":5123,
		"count":516,
		"byteOffset":0,
		"min":[0],
		"max":[515]
	},
	{
		"bufferView":1,
		"type":"VEC3",
		"componentType":5126,
		"count":516,
		"byteOffset":0,
		"min":[-0.12794433534145356,
		-0.24313893914222718,
		-0.178912952542305],
		"max":[0.12794433534145356,
		0.24313893914222718,
		0.178912952542305]
	},
	{
		"bufferView":1,
		"type":"VEC3",
		"componentType":5126,
		"count":516,
		"byteOffset":12,
		"min":[-0.9832747578620911,
		-0.9925609230995178,
		-0.9914264678955078],
		"max":[0.9832747578620911,
		0.9925609230995178,
		0.9914264678955078]
	},
	{
		"bufferView":1,
		"type":"VEC2",
		"componentType":5126,
		"count":516,
		"byteOffset":24,
		"min":[0.0,
		0.0],
		"max":[1.0,
		1.0]
	},
	{
		"bufferView":2,
		"type":"SCALAR",
		"componentType":5123,
		"count":19332,
		"byteOffset":0,
		"min":[0],
		"max":[19331]
	},
	{
		"bufferView":3,
		"type":"VEC3",
		"componentType":5126,
		"count":19332,
		"byteOffset":0,
		"min":[0.8275545239448547,
		6.137284755706787,
		-0.8257546424865723],
		"max":[2.7301974296569826,
		7.830328941345215,
		0.738536536693573]
	},
	{
		"bufferView":3,
		"type":"VEC3",
		"componentType":5126,
		"count":19332,
		"byteOffset":12,
		"min":[-1.0,
		-1.0,
		-1.0],
		"max":[1.0,
		1.0,
		1.0]
	},
	{
		"bufferView":3,
		"type":"VEC2",
		"componentType":5126,
		"count":19332,
		"byteOffset":24,
		"min":[0.0,
		0.0047180429100990299],
		"max":[1.0,
		0.9952819347381592]
	},
	{
		"bufferView":4,
		"type":"SCALAR",
		"componentType":5123,
		"count":672,
		"byteOffset":0,
		"min":[0],
		"max":[671]
	},
	{
		"bufferView":5,
		"type":"VEC3",
		"componentType":5126,
		"count":672,
		"byteOffset":0,
		"min":[-0.8297182321548462,
		-1.1991358995437623,
		-0.6680604815483093],
		"max":[0.8297182321548462,
		0.7323240041732788,
		0.6680604815483093]
	},
	{
		"bufferView":5,
		"type":"VEC3",
		"componentType":5126,
		"count":672,
		"byteOffset":12,
		"min":[-0.9832747578620911,
		-0.9759790301322937,
		-0.9832747578620911],
		"max":[0.9832747578620911,
		0.9865118861198425,
		0.9832747578620911]
	},
	{
		"bufferView":5,
		"type":"VEC2",
		"componentType":5126,
		"count":672,
		"byteOffset":24,
		"min":[0.0,
		0.0],
		"max":[1.0,
		1.0]
	},
	{
		"bufferView":6,
		"type":"SCALAR",
		"componentType":5123,
		"count":864,
		"byteOffset":0,
		"min":[0],
		"max":[863]
	},
	{
		"bufferView":7,
		"type":"VEC3",
		"componentType":5126,
		"count":864,
		"byteOffset":0,
		"min":[-0.17891645431518556,
		-0.4858085811138153,
		-0.2614791989326477],
		"max":[0.7117645144462586,
		0.561104416847229,
		0.24281245470046998]
	},
	{
		"bufferView":7,
		"type":"VEC3",
		"componentType":5126,
		"count":864,
		"byteOffset":12,
		"min":[-0.98598313331604,
		-0.9919118881225586,
		-0.9999060034751892],
		"max":[0.9859998226165772,
		0.9928694367408752,
		0.9999060034751892]
	},
	{
		"bufferView":7,
		"type":"VEC2",
		"componentType":5126,
		"count":864,
		"byteOffset":24,
		"min":[0.0,
		0.0],
		"max":[1.0,
		1.0]
	},
	{
		"bufferView":8,
		"type":"SCALAR",
		"componentType":5123,
		"count":516,
		"byteOffset":0,
		"min":[0],
		"max":[515]
	},
	{
		"bufferView":9,
		"type":"VEC3",
		"componentType":5126,
		"count":516,
		"byteOffset":0,
		"min":[-0.12794433534145356,
		-0.24313893914222718,
		-0.178912952542305],
		"max":[0.12794433534145356,
		0.24313893914222718,
		0.178912952542305]
	},
	{
		"bufferView":9,
		"type":"VEC3",
		"componentType":5126,
		"count":516,
		"byteOffset":12,
		"min":[-0.9832747578620911,
		-0.9925609230995178,
		-0.9914264678955078],
		"max":[0.9832747578620911,
		0.9925609230995178,
		0.9914264678955078]
	},
	{
		"bufferView":9,
		"type":"VEC2",
		"componentType":5126,
		"count":516,
		"byteOffset":24,
		"min":[0.0,
		0.0],
		"max":[1.0,
		1.0]
	},
	{
		"bufferView":10,
		"type":"SCALAR",
		"componentType":5123,
		"count":864,
		"byteOffset":0,
		"min":[0],
		"max":[863]
	},
	{
		"bufferView":11,
		"type":"VEC3",
		"componentType":5126,
		"count":864,
		"byteOffset":0,
		"min":[-0.33446213603019717,
		-0.5256103277206421,
		-0.5688643455505371],
		"max":[0.2336324006319046,
		0.609037458896637,
		0.20038236677646638]
	},
	{
		"bufferView":11,
		"type":"VEC3",
		"componentType":5126,
		"count":864,
		"byteOffset":12,
		"min":[-0.9961614012718201,
		-0.9977195858955383,
		-0.9836758375167847],
		"max":[0.9989850521087647,
		0.9843651056289673,
		0.9914218783378601]
	},
	{
		"bufferView":11,
		"type":"VEC2",
		"componentType":5126,
		"count":864,
		"byteOffset":24,
		"min":[0.0,
		0.0],
		"max":[1.0,
		1.0]
	},
	{
		"bufferView":12,
		"type":"SCALAR",
		"componentType":5123,
		"count":612,
		"byteOffset":0,
		"min":[0],
		"max":[611]
	},
	{
		"bufferView":13,
		"type":"VEC3",
		"componentType":5126,
		"count":612,
		"byteOffset":0,
		"min":[-0.3142021596431732,
		-0.20597314834594727,
		-0.30121779441833498],
		"max":[0.3142021596431732,
		0.20597314834594727,
		0.30121779441833498]
	},
	{
		"bufferView":13,
		"type":"VEC3",
		"componentType":5126,
		"count":612,
		"byteOffset":12,
		"min":[-0.9832747578620911,
		-0.9865118861198425,
		-0.9832747578620911],
		"max":[0.9832747578620911,
		0.9865118861198425,
		0.9832747578620911]
	},
	{
		"bufferView":13,
		"type":"VEC2",
		"componentType":5126,
		"count":612,
		"byteOffset":24,
		"min":[0.0,
		0.0],
		"max":[1.0,
		1.0]
	},
	{
		"bufferView":14,
		"type":"SCALAR",
		"componentType":5123,
		"count":480,
		"byteOffset":0,
		"min":[0],
		"max":[479]
	},
	{
		"bufferView":15,
		"type":"VEC3",
		"componentType":5126,
		"count":480,
		"byteOffset":0,
		"min":[-0.4991960823535919,
		-0.6863672733306885,
		-0.840713381767273],
		"max":[0.32436603307724,
		0.8964375853538513,
		0.32436603307724]
	},
	{
		"bufferView":15,
		"type":"VEC3",
		"componentType":5126,
		"count":480,
		"byteOffset":12,
		"min":[-0.9988902807235718,
		-1.0,
		-0.9957101345062256],
		"max":[0.9988605380058289,
		0.7521893382072449,
		0.9951619505882263]
	},
	{
		"bufferView":15,
		"type":"VEC2",
		"componentType":5126,
		"count":480,
		"byteOffset":24,
		"min":[0.0,
		0.0],
		"max":[1.0,
		1.0]
	},
	{
		"bufferView":16,
		"type":"SCALAR",
		"componentType":5123,
		"count":1056,
		"byteOffset":0,
		"min":[0],
		"max":[1055]
	},
	{
		"bufferView":17,
		"type":"VEC3",
		"componentType":5126,
		"count":1056,
		"byteOffset":0,
		"min":[-0.2819012701511383,
		-0.2819012701511383,
		-0.42134955525398257],
		"max":[0.2819012701511383,
		0.2819012701511383,
		0.42134955525398257]
	},
	{
		"bufferView":17,
		"type":"VEC3",
		"componentType":5126,
		"count":1056,
		"byteOffset":12,
		"min":[-1.0,
		-1.0,
		-1.0],
		"max":[1.0,
		1.0,
		1.0]
	},
	{
		"bufferView":17,
		"type":"VEC2",
		"componentType":5126,
		"count":1056,
		"byteOffset":24,
		"min":[0.0,
		0.0],
		"max":[1.0,
		1.0]
	},
	{
		"bufferView":18,
		"type":"SCALAR",
		"componentType":5123,
		"count":10368,
		"byteOffset":0,
		"min":[0],
		"max":[10367]
	},
	{
		"bufferView":19,
		"type":"VEC3",
		"componentType":5126,
		"count":10368,
		"byteOffset":0,
		"min":[-0.7705767154693604,
		-0.6287965774536133,
		-0.6048245429992676],
		"max":[0.7705767154693604,
		0.6287965774536133,
		0.6048245429992676]
	},
	{
		"bufferView":19,
		"type":"VEC3",
		"componentType":5126,
		"count":10368,
		"byteOffset":12,
		"min":[-1.0,
		-1.0,
		-1.0],
		"max":[1.0,
		1.0,
		1.0]
	},
	{
		"bufferView":19,
		"type":"VEC2",
		"componentType":5126,
		"count":10368,
		"byteOffset":24,
		"min":[0.0,
		0.0047180429100990299],
		"max":[1.0,
		0.9952819347381592]
	}],
	"nodes":[{
		"name":"Cubo",
		"mesh":0,
		"translation":[2.6700692176818849,
		7.006056785583496,
		0.10807119309902191],
		"rotation":[0.0,
		0.0,
		0.0,
		-1.0],
		"scale":[1.0,
		1.0,
		1.0]
	},
	{
		"name":"Booleano",
		"mesh":1
	},
	{
		"name":"Subdivisi칩n Superficie.2",
		"translation":[1.775654673576355,
		6.933554172515869,
		0.34481707215309145],
		"rotation":[0.0,
		0.0,
		0.0,
		-1.0],
		"scale":[1.0,
		1.0,
		1.0],
		"children":[11]
	},
	{
		"name":"Cubo.2",
		"mesh":2,
		"translation":[1.7376651763916016,
		5.460822105407715,
		0.0],
		"rotation":[0.0,
		0.0,
		0.0,
		-1.0],
		"scale":[1.0,
		1.0,
		1.0]
	},
	{
		"name":"Cilindro",
		"mesh":3,
		"translation":[0.679477334022522,
		5.730850696563721,
		0.0],
		"rotation":[0.0,
		0.0,
		0.6721302270889282,
		0.7404329180717468],
		"scale":[1.0,
		1.0,
		1.0]
	},
	{
		"name":"Cubo.1",
		"mesh":4,
		"translation":[0.8528008460998535,
		7.006056785583496,
		0.10807119309902191],
		"rotation":[0.0,
		0.0,
		0.0,
		-1.0],
		"scale":[1.0,
		1.0,
		1.0]
	},
	{
		"name":"Cilindro.1",
		"mesh":5,
		"translation":[2.8134567737579347,
		5.784963130950928,
		0.05424990877509117],
		"rotation":[0.7221095561981201,
		0.6728185415267944,
		0.15898676216602326,
		0.02441619150340557],
		"scale":[1.0,
		1.0,
		1.0]
	},
	{
		"name":"RS C치mara RS",
		"camera":0,
		"translation":[1.4334017038345338,
		5.531327247619629,
		13.888894081115723],
		"rotation":[0.011516731232404709,
		-0.01875690184533596,
		0.00021607054804917425,
		0.999757707118988],
		"scale":[1.0,
		1.0,
		1.0]
	},
	{
		"name":"Cubo.3",
		"mesh":6,
		"translation":[1.7117838859558106,
		5.727593421936035,
		0.45278844237327578],
		"rotation":[0.0,
		0.0,
		0.0,
		-1.0],
		"scale":[1.0,
		1.0,
		1.0]
	},
	{
		"name":"Cilindro.2",
		"mesh":7,
		"translation":[2.4340178966522219,
		4.557174205780029,
		0.15502341091632844],
		"rotation":[0.6282638907432556,
		0.20762282609939576,
		0.708490252494812,
		-0.24539528787136079],
		"scale":[1.0,
		1.0,
		1.0]
	},
	{
		"name":"C치psula",
		"mesh":8,
		"translation":[2.3301775455474855,
		3.604097366333008,
		-0.0009803887223824859],
		"rotation":[-0.035397693514823917,
		-0.007340878713876009,
		0.016589859500527383,
		-0.9992086291313171],
		"scale":[1.0,
		1.0,
		1.0]
	},
	{
		"name":"Cubo",
		"mesh":9
	}],
	"meshes":[{
		"name":"Cubo",
		"primitives":[{
			"material":0,
			"attributes":{
				"POSITION":1,
				"NORMAL":2,
				"TEXCOORD_0":3
			},
			"indices":0
		}]
	},
	{
		"name":"Booleano",
		"primitives":[{
			"material":0,
			"attributes":{
				"POSITION":5,
				"NORMAL":6,
				"TEXCOORD_0":7
			},
			"indices":4
		}]
	},
	{
		"name":"Cubo.2",
		"primitives":[{
			"material":0,
			"attributes":{
				"POSITION":9,
				"NORMAL":10,
				"TEXCOORD_0":11
			},
			"indices":8
		}]
	},
	{
		"name":"Cilindro",
		"primitives":[{
			"material":0,
			"attributes":{
				"POSITION":13,
				"NORMAL":14,
				"TEXCOORD_0":15
			},
			"indices":12
		}]
	},
	{
		"name":"Cubo.1",
		"primitives":[{
			"material":0,
			"attributes":{
				"POSITION":17,
				"NORMAL":18,
				"TEXCOORD_0":19
			},
			"indices":16
		}]
	},
	{
		"name":"Cilindro.1",
		"primitives":[{
			"material":0,
			"attributes":{
				"POSITION":21,
				"NORMAL":22,
				"TEXCOORD_0":23
			},
			"indices":20
		}]
	},
	{
		"name":"Cubo.3",
		"primitives":[{
			"material":0,
			"attributes":{
				"POSITION":25,
				"NORMAL":26,
				"TEXCOORD_0":27
			},
			"indices":24
		}]
	},
	{
		"name":"Cilindro.2",
		"primitives":[{
			"material":0,
			"attributes":{
				"POSITION":29,
				"NORMAL":30,
				"TEXCOORD_0":31
			},
			"indices":28
		}]
	},
	{
		"name":"C치psula",
		"primitives":[{
			"material":0,
			"attributes":{
				"POSITION":33,
				"NORMAL":34,
				"TEXCOORD_0":35
			},
			"indices":32
		}]
	},
	{
		"name":"Cubo",
		"primitives":[{
			"material":1,
			"attributes":{
				"POSITION":37,
				"NORMAL":38,
				"TEXCOORD_0":39
			},
			"indices":36
		}]
	}],
	"cameras":[{
		"type":"perspective",
		"perspective":{
			"znear":0.009999999776482582,
			"zfar":10000000000.0,
			"aspectRatio":1.7777777910232545,
			"yfov":0.5631968379020691
		}
	}],
	"bufferViews":[{
		"buffer":0,
		"byteOffset":0,
		"byteLength":1032,
		"target":34963
	},
	{
		"buffer":0,
		"byteOffset":1032,
		"byteLength":16512,
		"target":34962,
		"byteStride":32
	},
	{
		"buffer":1,
		"byteOffset":0,
		"byteLength":38664,
		"target":34963
	},
	{
		"buffer":1,
		"byteOffset":38664,
		"byteLength":618624,
		"target":34962,
		"byteStride":32
	},
	{
		"buffer":2,
		"byteOffset":0,
		"byteLength":1344,
		"target":34963
	},
	{
		"buffer":2,
		"byteOffset":1344,
		"byteLength":21504,
		"target":34962,
		"byteStride":32
	},
	{
		"buffer":3,
		"byteOffset":0,
		"byteLength":1728,
		"target":34963
	},
	{
		"buffer":3,
		"byteOffset":1728,
		"byteLength":27648,
		"target":34962,
		"byteStride":32
	},
	{
		"buffer":4,
		"byteOffset":0,
		"byteLength":1032,
		"target":34963
	},
	{
		"buffer":4,
		"byteOffset":1032,
		"byteLength":16512,
		"target":34962,
		"byteStride":32
	},
	{
		"buffer":5,
		"byteOffset":0,
		"byteLength":1728,
		"target":34963
	},
	{
		"buffer":5,
		"byteOffset":1728,
		"byteLength":27648,
		"target":34962,
		"byteStride":32
	},
	{
		"buffer":6,
		"byteOffset":0,
		"byteLength":1224,
		"target":34963
	},
	{
		"buffer":6,
		"byteOffset":1224,
		"byteLength":19584,
		"target":34962,
		"byteStride":32
	},
	{
		"buffer":7,
		"byteOffset":0,
		"byteLength":960,
		"target":34963
	},
	{
		"buffer":7,
		"byteOffset":960,
		"byteLength":15360,
		"target":34962,
		"byteStride":32
	},
	{
		"buffer":8,
		"byteOffset":0,
		"byteLength":2112,
		"target":34963
	},
	{
		"buffer":8,
		"byteOffset":2112,
		"byteLength":33792,
		"target":34962,
		"byteStride":32
	},
	{
		"buffer":9,
		"byteOffset":0,
		"byteLength":20736,
		"target":34963
	},
	{
		"buffer":9,
		"byteOffset":20736,
		"byteLength":331776,
		"target":34962,
		"byteStride":32
	}],
	"buffers":[{
		"uri":"data:application/octet-stream;base64,",
		"byteLength":17544
	},
	{
		"uri":"data:application/octet-stream;base64,",
		"byteLength":657288
	},
	{
		"uri":"data:application/octet-stream;base64,",
		"byteLength":22848
	},
	{
		"uri":"data:application/octet-stream;base64,",
		"byteLength":29376
	},
	{
		"uri":"data:application/octet-stream;base64,",
		"byteLength":17544
	},
	{
		"uri":"data:application/octet-stream;base64,",
		"byteLength":29376
	},
	{
		"uri":"data:application/octet-stream;base64,",
		"byteLength":20808
	},
	{
		"uri":"data:application/octet-stream;base64,",
		"byteLength":16320
	},
	{
		"uri":"data:application/octet-stream;base64,",
		"byteLength":35904
	},
	{
		"uri":"data:application/octet-stream;base64,",
		"byteLength":352512
	}],
	"materials":[{
		"pbrMetallicRoughness":{
			"baseColorFactor":[1.0,
			1.0,
			1.0,
			1.0],
			"metallicFactor":0.0,
			"roughnessFactor":0.0
		},
		"emissiveFactor":[0.0,
		0.0,
		0.0],
		"alphaMode":"OPAQUE",
		"doubleSided":false,
		"name":"Mat.1"
	},
	{
		"pbrMetallicRoughness":{
			"baseColorFactor":[0.0,
			0.0,
			0.0,
			1.0],
			"metallicFactor":0.0,
			"roughnessFactor":0.20000000298023225
		},
		"emissiveFactor":[0.0,
		0.0,
		0.0],
		"alphaMode":"OPAQUE",
		"doubleSided":false,
		"name":"Mat"
	}]
}